<svg width="21" height="20" fill="none" xmlns="http://www.w3.org/2000/svg"><path d="M6.555 15.71a2.145 2.145 0 100 4.29 2.145 2.145 0 000-4.29zm0 3.337a1.192 1.192 0 110-2.384 1.192 1.192 0 010 2.384zm9.059-3.337a2.145 2.145 0 100 4.29 2.145 2.145 0 000-4.29zm0 3.337a1.192 1.192 0 110-2.384 1.192 1.192 0 010 2.384zm4.839-15.853a.596.596 0 00-.381-.19L4.553 2.789l-.429-1.311A2.193 2.193 0 002.074 0H.477a.477.477 0 100 .954h1.597a1.24 1.24 0 011.144.834l3.028 9.13-.239.548a2.288 2.288 0 00.215 2.074c.396.606 1.064.98 1.788 1.001h9.273a.477.477 0 100-.953H8.01a1.216 1.216 0 01-1.002-.572 1.31 1.31 0 01-.119-1.145l.19-.429 10.037-1.049a2.622 2.622 0 002.264-2.002l1.145-4.792a.405.405 0 00-.072-.405zM18.45 8.176a1.621 1.621 0 01-1.454 1.264L7.08 10.465 4.863 3.743l14.613.214-1.025 4.22z" fill="#181D19"/></svg>