<?xml version="1.0" encoding="utf-8"?><svg viewBox="0 0 92 21" xmlns="http://www.w3.org/2000/svg" xmlns:xlink="http://www.w3.org/1999/xlink"><style>:root>svg{display:none}:root>svg:target{display:block}</style><svg fill="none" viewBox="0 0 92 21" id="logo" xmlns="http://www.w3.org/2000/svg"><path d="M3.888 1.93v11.518c0 1.37.355 2.4 1.066 3.094.728.693 1.733 1.04 3.016 1.04 1.3 0 2.305-.347 3.016-1.04.728-.693 1.092-1.725 1.092-3.094V1.93h2.964v11.466c0 1.473-.32 2.721-.962 3.744a5.97 5.97 0 0 1-2.574 2.288c-1.075.503-2.262.754-3.562.754-1.3 0-2.487-.251-3.562-.754A5.842 5.842 0 0 1 1.86 17.14c-.624-1.023-.936-2.27-.936-3.744V1.93h2.964zm17.977 0V20h-2.964V1.93h2.964zm5.088 18.252c-.538 0-.988-.182-1.352-.546-.364-.364-.546-.815-.546-1.352 0-.537.182-.988.546-1.352.364-.364.814-.546 1.352-.546.52 0 .962.182 1.326.546.364.364.546.815.546 1.352 0 .537-.182.988-.546 1.352a1.805 1.805 0 0 1-1.326.546zm4.087-7.41c0-1.439.295-2.713.884-3.822.607-1.11 1.422-1.967 2.444-2.574 1.04-.624 2.193-.936 3.458-.936.936 0 1.855.208 2.756.624.919.399 1.647.936 2.184 1.612V.76h2.99V20h-2.99v-2.158c-.485.693-1.161 1.265-2.028 1.716-.85.45-1.828.676-2.938.676a6.546 6.546 0 0 1-3.432-.936c-1.023-.641-1.837-1.525-2.444-2.652-.59-1.144-.884-2.435-.884-3.874zm11.726.052c0-.988-.208-1.846-.624-2.574-.399-.728-.927-1.283-1.586-1.664a4.183 4.183 0 0 0-2.132-.572c-.763 0-1.473.19-2.132.572-.659.364-1.196.91-1.612 1.638-.398.71-.598 1.56-.598 2.548s.2 1.855.598 2.6c.416.745.953 1.317 1.612 1.716a4.277 4.277 0 0 0 2.132.572c.763 0 1.474-.19 2.132-.572.659-.381 1.188-.936 1.586-1.664.416-.745.624-1.612.624-2.6zm20.013-.338c0 .537-.034 1.023-.104 1.456H51.73c.087 1.144.512 2.063 1.274 2.756.763.693 1.699 1.04 2.808 1.04 1.595 0 2.722-.667 3.38-2.002h3.198c-.433 1.317-1.222 2.4-2.366 3.25-1.126.832-2.53 1.248-4.212 1.248-1.37 0-2.6-.303-3.692-.91a6.802 6.802 0 0 1-2.548-2.6c-.606-1.127-.91-2.427-.91-3.9 0-1.473.295-2.765.884-3.874.607-1.127 1.448-1.993 2.522-2.6 1.092-.607 2.34-.91 3.744-.91 1.352 0 2.557.295 3.614.884a6.224 6.224 0 0 1 2.47 2.496c.59 1.057.884 2.28.884 3.666zm-3.094-.936c-.017-1.092-.407-1.967-1.17-2.626-.762-.659-1.707-.988-2.834-.988-1.022 0-1.898.33-2.626.988-.728.641-1.161 1.517-1.3 2.626h7.93zm11.211 8.684c-1.127 0-2.14-.2-3.042-.598-.884-.416-1.586-.97-2.106-1.664a4.21 4.21 0 0 1-.832-2.366h3.068c.052.607.338 1.118.858 1.534.537.399 1.205.598 2.002.598.832 0 1.473-.156 1.924-.468.468-.33.702-.745.702-1.248 0-.537-.26-.936-.78-1.196-.503-.26-1.309-.546-2.418-.858-1.075-.295-1.95-.58-2.626-.858a4.714 4.714 0 0 1-1.768-1.274c-.485-.572-.728-1.326-.728-2.262 0-.763.225-1.456.676-2.08.45-.641 1.092-1.144 1.924-1.508.85-.364 1.82-.546 2.912-.546 1.63 0 2.938.416 3.926 1.248 1.005.815 1.543 1.933 1.612 3.354h-2.964c-.052-.641-.312-1.153-.78-1.534s-1.1-.572-1.898-.572c-.78 0-1.378.147-1.794.442-.416.295-.624.685-.624 1.17 0 .381.139.702.416.962.277.26.615.468 1.014.624.399.139.988.32 1.768.546 1.04.277 1.89.563 2.548.858a4.611 4.611 0 0 1 1.742 1.248c.485.555.737 1.291.754 2.21 0 .815-.225 1.543-.676 2.184-.45.641-1.092 1.144-1.924 1.508-.815.364-1.777.546-2.886.546zm14.357-7.384L91.857 20h-4.004l-5.304-6.162V20h-2.964V.76h2.964v11.18l5.2-6.266h4.108l-6.604 7.176z" fill="#333"/></svg><svg fill="none" viewBox="0 0 21 21" id="search" xmlns="http://www.w3.org/2000/svg"><path d="M17.661 9.08A8.58 8.58 0 1 1 .5 9.08a8.58 8.58 0 0 1 17.161 0z" stroke="#181D19"/><path d="m20 20-4.766-4.766" stroke="#181D19" stroke-linecap="round"/></svg><svg fill="none" viewBox="0 0 21 20" id="shoping-cart" xmlns="http://www.w3.org/2000/svg"><path d="M6.555 15.71a2.145 2.145 0 1 0 0 4.29 2.145 2.145 0 0 0 0-4.29zm0 3.337a1.192 1.192 0 1 1 0-2.384 1.192 1.192 0 0 1 0 2.384zm9.059-3.337a2.145 2.145 0 1 0 0 4.29 2.145 2.145 0 0 0 0-4.29zm0 3.337a1.192 1.192 0 1 1 0-2.384 1.192 1.192 0 0 1 0 2.384zm4.839-15.853a.596.596 0 0 0-.381-.19L4.553 2.789l-.429-1.311A2.193 2.193 0 0 0 2.074 0H.477a.477.477 0 1 0 0 .954h1.597a1.24 1.24 0 0 1 1.144.834l3.028 9.13-.239.548a2.288 2.288 0 0 0 .215 2.074c.396.606 1.064.98 1.788 1.001h9.273a.477.477 0 1 0 0-.953H8.01a1.216 1.216 0 0 1-1.002-.572 1.31 1.31 0 0 1-.119-1.145l.19-.429 10.037-1.049a2.622 2.622 0 0 0 2.264-2.002l1.145-4.792a.405.405 0 0 0-.072-.405zM18.45 8.176a1.621 1.621 0 0 1-1.454 1.264L7.08 10.465 4.863 3.743l14.613.214-1.025 4.22z" fill="#181D19"/></svg></svg>