<?xml version="1.0" encoding="UTF-8"?>
<svg xmlns="http://www.w3.org/2000/svg" xmlns:xlink="http://www.w3.org/1999/xlink" width="13px" height="15px" viewBox="0 0 13 14" version="1.1">
<g id="surface1">
<path style=" stroke:none;fill-rule:nonzero;fill: #fff;fill-opacity:1;" d="M 0.273438 6.382812 C -0.0898438 6.722656 -0.0898438 7.277344 0.273438 7.621094 L 4.914062 11.996094 C 5.277344 12.335938 5.867188 12.335938 6.230469 11.996094 C 6.59375 11.652344 6.59375 11.097656 6.230469 10.757812 L 3.167969 7.875 L 12.070312 7.875 C 12.585938 7.875 13 7.484375 13 7 C 13 6.515625 12.585938 6.125 12.070312 6.125 L 3.171875 6.125 L 6.226562 3.242188 C 6.589844 2.902344 6.589844 2.347656 6.226562 2.003906 C 5.863281 1.664062 5.277344 1.664062 4.914062 2.003906 L 0.269531 6.378906 Z M 0.273438 6.382812 "/>
</g>
</svg>
