<?xml version="1.0" encoding="UTF-8"?>
<svg xmlns="http://www.w3.org/2000/svg" xmlns:xlink="http://www.w3.org/1999/xlink" width="13px" height="15px" viewBox="0 0 13 14" version="1.1">
<g id="surface1">
<path style=" stroke:none;fill-rule:nonzero;fill: #fff;fill-opacity:1;" d="M 12.726562 7.617188 C 13.089844 7.277344 13.089844 6.722656 12.726562 6.378906 L 8.085938 2.003906 C 7.722656 1.664062 7.132812 1.664062 6.769531 2.003906 C 6.40625 2.347656 6.40625 2.902344 6.769531 3.242188 L 9.832031 6.125 L 0.929688 6.125 C 0.414062 6.125 0 6.515625 0 7 C 0 7.484375 0.414062 7.875 0.929688 7.875 L 9.828125 7.875 L 6.773438 10.757812 C 6.410156 11.097656 6.410156 11.652344 6.773438 11.996094 C 7.136719 12.335938 7.722656 12.335938 8.085938 11.996094 L 12.730469 7.621094 Z M 12.726562 7.617188 "/>
</g>
</svg>
